<svg width="11" height="22" viewBox="0 0 11 22" version="1.1" xmlns="http://www.w3.org/2000/svg" xmlns:xlink="http://www.w3.org/1999/xlink">
<title>Vector</title>
<desc>Created using Figma</desc>
<g id="Canvas" transform="translate(-2999 -195)">
<g id="Vector">
<use xlink:href="#path0_fill" transform="translate(2999 195)" fill="#000000" fill-opacity="0.87"/>
</g>
</g>
<defs>
<path id="path0_fill" d="M 9.5 5L 9.5 16.5C 9.5 18.7 7.7 20.5 5.5 20.5C 3.3 20.5 1.5 18.7 1.5 16.5L 1.5 4C 1.5 2.6 2.6 1.5 4 1.5C 5.4 1.5 6.5 2.6 6.5 4L 6.5 14.5C 6.5 15 6.1 15.5 5.5 15.5C 4.9 15.5 4.5 15 4.5 14.5L 4.5 5L 3 5L 3 14.5C 3 15.9 4.1 17 5.5 17C 6.9 17 8 15.9 8 14.5L 8 4C 8 1.8 6.2 0 4 0C 1.8 0 0 1.8 0 4L 0 16.5C 0 19.5 2.5 22 5.5 22C 8.5 22 11 19.5 11 16.5L 11 5L 9.5 5Z"/>
</defs>
</svg>
