<svg width="18" height="20" viewBox="0 0 18 20" version="1.1" xmlns="http://www.w3.org/2000/svg" xmlns:xlink="http://www.w3.org/1999/xlink">
<title>help&#38;feedback</title>
<desc>Created using Figma</desc>
<g id="Canvas" transform="translate(1063 -574)">
<g id="icons/help&#38;feedback">
<g id="ico/Notifications">
<use xlink:href="#path0_fill" transform="translate(-1063 574)" fill="#FFFFFF"/>
</g>
</g>
</g>
<defs>
<path id="path0_fill" d="M 17.4 13.4621C 16.44 13.4621 15.6 12.63 15.6 11.6791L 15.6 9.30164C 15.6 5.85439 12.96 3.12036 9.6 2.76375L 9.6 1.16907e-07L 9 0L 8.4 1.16907e-07L 8.4 2.76375C 5.04 3.12036 2.4 5.85439 2.4 9.30164L 2.4 11.6791C 2.4 12.63 1.56 13.4621 0.6 13.4621C 0.24 13.4621 0 13.6999 0 14.0565C 0 15.4829 2.4 16.4339 5.4 16.7905C 5.64 18.5736 7.08 20 9 20C 10.92 20 12.36 18.5736 12.6 16.7905C 15.6 16.4339 18 15.4829 18 14.0565C 18 13.6999 17.76 13.4621 17.4 13.4621ZM 9 18.8113C 7.8 18.8113 6.84 17.9792 6.6 16.9094C 7.44 17.0282 8.16 17.0282 9 17.0282C 9.72 17.0282 10.56 17.0282 11.4 16.9094C 11.16 17.9792 10.2 18.8113 9 18.8113ZM 9 15.8395C 4.92 15.8395 2.52 15.1263 1.56 14.5319C 2.76 14.1753 3.6 12.9866 3.6 11.6791L 3.6 9.30164C 3.6 6.32987 6 3.95245 9 3.95245C 12 3.95245 14.4 6.32987 14.4 9.30164L 14.4 11.6791C 14.4 12.9866 15.24 14.0565 16.44 14.5319C 15.48 15.1263 13.08 15.8395 9 15.8395Z"/>
</defs>
</svg>
