<svg width="72" height="83" viewBox="0 0 72 83" version="1.1" xmlns="http://www.w3.org/2000/svg" xmlns:xlink="http://www.w3.org/1999/xlink">
<title>Logo</title>
<desc>Created using Figma</desc>
<g id="Canvas" transform="translate(1912 2025)">
<g id="Logo">
<use xlink:href="#path0_fill" transform="translate(-1912 -2025)" fill="#FFFFFF"/>
</g>
</g>
<defs>
<path id="path0_fill" d="M 72 70.1619L 71.4 70.759C 63.6 78.5216 53.1 83 41.7 83C 30.6 83 20.1 78.8202 12.3 70.759C 4.2 62.9964 0 52.5468 0 41.5C 0 30.4532 4.2 20.0036 12.3 12.241C 20.1 4.17986 30.6 0 41.7 0L 41.7 7.76259C 23.1 7.76259 7.8 22.9892 7.8 41.5C 7.8 60.0108 23.1 75.536 42 75.536C 48.9 75.536 55.2 73.446 60.9 69.8633L 38.1531 47.418L 43.8373 41.7589L 72 70.1619Z"/>
</defs>
</svg>
