<svg width="18" height="18" viewBox="0 0 18 18" version="1.1" xmlns="http://www.w3.org/2000/svg" xmlns:xlink="http://www.w3.org/1999/xlink">
<title>bids</title>
<desc>Created using Figma</desc>
<g id="Canvas" transform="translate(1063 -350)">
<g id="icons/bids">
<g id="ico/Bids">
<use xlink:href="#path0_fill" transform="translate(-1063 350)" fill="#FFFFFF"/>
</g>
</g>
</g>
<defs>
<path id="path0_fill" d="M 17.8875 8.49689C 17.8875 8.49689 18 8.8323 18 8.9441C 18 9.0559 17.775 9.2795 17.775 9.2795C 17.775 9.2795 16.0875 10.3975 13.8375 10.3975C 11.5875 10.3975 9.9 9.2795 9.9 9.2795C 9.9 9.2795 9.1125 8.8323 7.9875 8.6087L 7.9875 7.49068C 9.45 7.71429 10.575 8.38509 10.575 8.38509C 10.575 8.38509 12.0375 9.2795 13.95 9.2795C 15.1875 9.2795 16.2 8.9441 16.7625 8.6087L 15.075 6.14907C 14.9625 6.03727 14.9625 5.81366 15.075 5.59006L 16.5375 2.57143C 15.8625 2.79503 14.9625 3.01863 14.0625 3.01863C 11.8125 3.01863 10.125 2.01242 10.125 2.01242C 10.125 2.01242 8.6625 1.11801 6.75 1.11801C 5.0625 1.11801 3.825 1.67702 3.375 1.90062L 3.375 16.882L 4.95 16.882C 5.2875 16.882 5.5125 17.1056 5.5125 17.441C 5.5125 17.7764 5.2875 18 4.95 18L 0.5625 18C 0.225 18 0 17.7764 0 17.441C 0 17.1056 0.225 16.882 0.5625 16.882L 2.25 16.882L 2.25 1.56522C 2.25 1.43839 2.28619 1.31156 2.33805 1.22554C 2.37762 1.1599 2.475 1.11801 2.475 1.11801C 2.5875 1.11801 4.275 0 6.4125 0C 8.6625 0 10.125 0.950983 10.35 1.11801C 10.35 1.11801 11.8125 2.01242 13.725 2.01242C 15.6375 2.01242 17.1 1.11801 17.1 1.11801C 17.325 1.00621 17.55 1.00621 17.775 1.11801C 18 1.34161 18 1.56522 18 1.78882L 16.0875 5.81366L 17.8875 8.49689Z"/>
</defs>
</svg>
