<svg width="20" height="15" viewBox="0 0 20 15" version="1.1" xmlns="http://www.w3.org/2000/svg" xmlns:xlink="http://www.w3.org/1999/xlink">
<title>inbox</title>
<desc>Created using Figma</desc>
<g id="Canvas" transform="translate(1064 -403)">
<g id="icons/inbox">
<g id="ico/inbox/new">
<use xlink:href="#path0_fill" transform="translate(-1064 403)" fill="#FFFFFF"/>
</g>
</g>
</g>
<defs>
<path id="path0_fill" fill-rule="evenodd" d="M 3.93054 0L 16.0695 0C 18.2032 0 20 1.875 20 4.10156L 20 13.2422C 20 14.1797 19.2139 15 18.3156 15C 17.8663 15 17.5294 14.7656 17.1925 14.5312L 15.3958 12.8906L 3.93042 12.8906L 3.93042 11.7188L 15.6204 11.7188C 15.7327 11.7188 15.845 11.7188 15.9572 11.8359L 17.9786 13.7109C 18.3156 13.9453 18.877 13.8281 18.877 13.2422L 18.877 4.10156C 18.877 2.46094 17.6417 1.17188 16.0695 1.17188L 3.93054 1.17188C 2.35828 1.17188 1.12305 2.46094 1.12305 4.10156L 1.12305 8.78906L 0 8.78906L 0 4.10156C 0 1.875 1.79675 0 3.93054 0ZM 9.90906 7.3125C 10.3608 7.3125 10.7272 6.93475 10.7272 6.46875C 10.7272 6.00275 10.3608 5.625 9.90906 5.625C 9.45715 5.625 9.09082 6.00275 9.09082 6.46875C 9.09082 6.93475 9.45715 7.3125 9.90906 7.3125ZM 15.2727 6.46875C 15.2727 6.93475 14.9064 7.3125 14.4546 7.3125C 14.0027 7.3125 13.6364 6.93475 13.6364 6.46875C 13.6364 6.00275 14.0027 5.625 14.4546 5.625C 14.9064 5.625 15.2727 6.00275 15.2727 6.46875ZM 5.36377 7.3125C 5.81555 7.3125 6.18188 6.93475 6.18188 6.46875C 6.18188 6.00275 5.81555 5.625 5.36377 5.625C 4.91187 5.625 4.54553 6.00275 4.54553 6.46875C 4.54553 6.93475 4.91187 7.3125 5.36377 7.3125Z"/>
</defs>
</svg>
