<svg width="16" height="18" viewBox="0 0 16 18" version="1.1" xmlns="http://www.w3.org/2000/svg" xmlns:xlink="http://www.w3.org/1999/xlink">
<title>posts</title>
<desc>Created using Figma</desc>
<g id="Canvas" transform="translate(1062 -302)">
<g id="icons/posts">
<g id="ico/Posts">
<use xlink:href="#path0_fill" transform="translate(-1062 302)" fill="#FFFFFF"/>
</g>
</g>
</g>
<defs>
<path id="path0_fill" fill-rule="evenodd" d="M 2.5 0L 13.5 0C 14.9 0 16 1.10001 16 2.5L 16 15.5C 16 16.9 14.9 18 13.5 18L 4.5 18L 4.5 17L 13.5 17C 14.3 17 15 16.3 15 15.5L 15 2.5C 15 1.70001 14.3 1 13.5 1L 2.5 1C 1.69995 1 1 1.70001 1 2.5L 1 13.5L 0 13.5L 0 2.5C 0 1.10001 1.09998 0 2.5 0ZM 11.4286 5.11111L 4.57141 5.11111C 4.22852 5.11111 4 4.88889 4 4.55554C 4 4.22223 4.22852 4 4.57141 4L 11.4286 4C 11.7715 4 12 4.22223 12 4.55554C 12 4.88889 11.7715 5.11111 11.4286 5.11111ZM 4.57141 9.55557L 11.4286 9.55557C 11.7715 9.55557 12 9.33334 12 9C 12 8.66669 11.7715 8.44446 11.4286 8.44446L 4.57141 8.44446C 4.22852 8.44446 4 8.66669 4 9C 4 9.33334 4.22852 9.55557 4.57141 9.55557ZM 11.4286 14L 4.57141 14C 4.22852 14 4 13.7778 4 13.4444C 4 13.1111 4.22852 12.8889 4.57141 12.8889L 11.4286 12.8889C 11.7715 12.8889 12 13.1111 12 13.4444C 12 13.7778 11.7715 14 11.4286 14Z"/>
</defs>
</svg>
