<svg width="24" height="24" viewBox="0 0 24 24" version="1.1" xmlns="http://www.w3.org/2000/svg" xmlns:xlink="http://www.w3.org/1999/xlink">
<title>Posts</title>
<desc>Created using Figma</desc>
<g id="Canvas" transform="translate(-34 -102)">
<g id="Posts">
<g id="ico/Posts">
<use xlink:href="#path0_fill" transform="translate(38 104)" fill="#FFFFFF"/>
</g>
</g>
</g>
<defs>
<path id="path0_fill" fill-rule="evenodd" d="M 2.5 0L 13.5 0C 14.9 0 16 1.1 16 2.5L 16 15.5C 16 16.9 14.9 18 13.5 18L 4.5 18L 4.5 17L 13.5 17C 14.3 17 15 16.3 15 15.5L 15 2.5C 15 1.7 14.3 1 13.5 1L 2.5 1C 1.7 1 1 1.7 1 2.5L 1 13.5L 0 13.5L 0 2.5C 0 1.1 1.1 0 2.5 0ZM 11.4286 5.11111L 4.57143 5.11111C 4.22857 5.11111 4 4.88889 4 4.55556C 4 4.22222 4.22857 4 4.57143 4L 11.4286 4C 11.7714 4 12 4.22222 12 4.55556C 12 4.88889 11.7714 5.11111 11.4286 5.11111ZM 4.57143 9.55556L 11.4286 9.55556C 11.7714 9.55556 12 9.33333 12 9C 12 8.66666 11.7714 8.44444 11.4286 8.44444L 4.57143 8.44444C 4.22857 8.44444 4 8.66666 4 9C 4 9.33333 4.22857 9.55556 4.57143 9.55556ZM 11.4286 14L 4.57143 14C 4.22857 14 4 13.7778 4 13.4444C 4 13.1111 4.22857 12.8889 4.57143 12.8889L 11.4286 12.8889C 11.7714 12.8889 12 13.1111 12 13.4444C 12 13.7778 11.7714 14 11.4286 14Z"/>
</defs>
</svg>
