<svg width="20" height="20" viewBox="0 0 20 20" version="1.1" xmlns="http://www.w3.org/2000/svg" xmlns:xlink="http://www.w3.org/1999/xlink">
<title>settings</title>
<desc>Created using Figma</desc>
<g id="Canvas" transform="translate(1064 -522)">
<g id="icons/settings">
<g id="ico/Settings">
<use xlink:href="#path0_fill" transform="translate(-1064 522)" fill="#FFFFFF"/>
</g>
</g>
</g>
<defs>
<path id="path0_fill" fill-rule="evenodd" d="M 8.59936 19.7671C 9.16601 20.0727 10.0969 20.0323 10.785 19.902C 10.8929 19.8795 10.9919 19.857 11.0729 19.8345C 11.6799 19.6817 12.1567 19.1783 12.1656 18.5312C 12.1666 18.4106 12.1576 18.2944 12.1488 18.1826C 12.1183 17.7946 12.092 17.459 12.5074 17.1694C 12.7819 16.9806 13.1146 16.9087 13.4385 16.8413L 13.459 16.8375C 13.5516 16.8204 13.6477 16.8027 13.7397 16.8278C 13.8608 16.8612 13.947 16.9565 14.0308 17.0492L 14.05 17.0705C 14.4639 17.5424 15.0079 17.9963 15.6332 17.9469C 16.1548 17.9064 16.573 17.5244 16.9508 17.1604C 17.5174 16.6166 18.1291 15.9199 17.9447 15.1603C 17.8407 14.7298 17.5045 14.4168 17.1741 14.1091C 17.0904 14.0313 17.0073 13.9538 16.9283 13.8749C 16.8789 13.8255 16.8293 13.7671 16.8069 13.6997C 16.7799 13.6008 16.8204 13.4929 16.8608 13.3985C 17.0048 13.066 17.1442 12.7334 17.2836 12.4008C 17.3241 12.3109 17.3646 12.221 17.4455 12.1715C 17.522 12.1311 17.6119 12.1311 17.6974 12.1356L 17.8262 12.1418C 18.3849 12.1694 18.9857 12.1991 19.4198 11.857C 19.9551 11.439 20 10.657 20 9.97831C 19.9955 9.29966 19.9506 8.52207 19.4109 8.10862C 18.9775 7.77555 18.3822 7.80503 17.8249 7.83262L 17.6929 7.83897C 17.6119 7.84342 17.522 7.84342 17.4501 7.80302C 17.369 7.75358 17.3241 7.65916 17.2881 7.56932C 17.2184 7.40074 17.1476 7.23338 17.0767 7.0659C 17.0059 6.89854 16.9351 6.73106 16.8653 6.56254C 16.8249 6.46818 16.7844 6.36479 16.8159 6.26591C 16.8384 6.19847 16.8923 6.14006 16.9463 6.09062C 16.9994 6.04106 17.0536 5.99162 17.108 5.942C 17.4786 5.60447 17.8608 5.25627 17.9628 4.77824C 18.1246 4.00523 17.495 3.31309 16.9148 2.77824C 16.5011 2.39622 16.0333 1.99174 15.4712 2.00071C 14.8415 2.00968 14.3558 2.53556 13.9421 3.00749C 13.8746 3.08384 13.7982 3.16477 13.6992 3.18272C 13.6183 3.19547 13.5373 3.16392 13.4602 3.13383L 13.4474 3.12882C 13.2743 3.05778 13.1011 2.9857 12.9278 2.91355C 12.7502 2.83964 12.5726 2.76567 12.395 2.69285C 12.3186 2.66142 12.2377 2.62541 12.1882 2.55802C 12.1343 2.47709 12.1387 2.37376 12.1432 2.27488C 12.1837 1.65464 12.2241 0.962504 11.8104 0.495096C 11.3198 -0.0605676 10.4564 -0.0175378 9.71349 0.0194495C 9.53698 0.0282385 9.36718 0.0366614 9.21093 0.0366614C 8.54089 0.041178 8.14513 0.477091 7.97875 1.08836C 7.93664 1.24058 7.92638 1.44151 7.91564 1.65183C 7.89306 2.09336 7.8684 2.57646 7.54247 2.73777C 7.46691 2.77555 7.38805 2.82005 7.30688 2.86601C 7.0205 3.02787 6.70397 3.20677 6.39562 3.16477C 6.07507 3.12309 5.86022 2.87309 5.64074 2.61766C 5.48156 2.43247 5.31994 2.24443 5.11388 2.13102C 4.77209 1.9423 4.34484 1.98271 3.98962 2.14451C 3.63549 2.30577 3.34399 2.56974 3.05712 2.82957L 3.05419 2.83219C 2.42455 3.40299 1.70947 4.14903 2.14575 5.05693C 2.3391 5.45243 2.6809 5.76255 3.0227 6.04118C 3.0946 6.09959 3.17114 6.16252 3.1936 6.2479C 3.22021 6.34086 3.18127 6.43809 3.14587 6.52683L 3.14416 6.53111C 3.07226 6.7064 2.99914 6.88163 2.92602 7.05693C 2.8529 7.23222 2.77978 7.40745 2.70788 7.58274C 2.6809 7.65019 2.64941 7.71763 2.59545 7.76255C 2.53698 7.80747 2.46056 7.82096 2.38854 7.82994C 2.19982 7.85075 2.00842 7.8408 1.81725 7.83097C 1.47082 7.81303 1.1256 7.79521 0.801019 7.96031C 0.436761 8.14457 0.202874 8.52659 0.094964 8.9221C -0.0129462 9.31761 -0.00403502 9.73557 0.00499818 10.1446C 0.0184259 10.9221 0.117425 11.7491 0.953973 12.0457C 1.39013 12.1985 1.87133 12.1715 2.33459 12.1266L 2.35046 12.1257C 2.4226 12.1211 2.50109 12.1163 2.56396 12.1581C 2.62243 12.1985 2.64941 12.2615 2.67638 12.3244C 2.75512 12.5132 2.83495 12.7019 2.91479 12.8907C 2.99462 13.0794 3.07446 13.2682 3.15307 13.4569C 3.18005 13.5244 3.20702 13.5918 3.19811 13.6637C 3.18908 13.7491 3.12609 13.8165 3.0631 13.8794C 2.98657 13.9546 2.90771 14.027 2.82897 14.0993C 2.65832 14.2563 2.48827 14.4125 2.34362 14.594C 1.50024 15.6388 2.47167 16.5849 3.21703 17.311L 3.27001 17.3626C 3.61633 17.6997 4.06603 17.9828 4.55175 17.9604C 4.95202 17.9424 5.31176 17.7177 5.5996 17.4435C 5.66027 17.3864 5.71887 17.3199 5.77844 17.2521C 5.94384 17.0639 6.1173 16.8665 6.36865 16.8368C 6.58886 16.8097 6.89831 16.9177 7.1549 17.0073C 7.23888 17.0366 7.31725 17.064 7.385 17.084C 7.57397 17.1379 7.77184 17.2502 7.83923 17.439C 7.87695 17.5476 7.86791 17.664 7.85925 17.7773L 7.85729 17.8031C 7.8258 18.1716 7.83032 18.5491 7.93823 18.9042C 8.05065 19.2593 8.27099 19.5918 8.59936 19.7671ZM 7.01623 15.7491C 6.80944 15.6413 6.58007 15.5873 6.35522 15.5873C 5.99535 15.5873 5.65356 15.7267 5.40173 15.9739L 4.63268 16.7424C 4.52929 16.8413 4.44836 16.8413 4.34484 16.7424L 3.234 15.6322C 3.15759 15.5514 3.15759 15.421 3.234 15.3446L 4.00305 14.5761C 4.42138 14.1581 4.51574 13.5109 4.23242 12.9626C 4.06152 12.639 3.92211 12.2974 3.80969 11.9468C 3.62536 11.3626 3.10363 10.9715 2.51 10.9715L 1.42162 10.9715C 1.31371 10.9715 1.21923 10.8772 1.21923 10.7693L 1.21923 9.19627C 1.21923 9.08842 1.31371 8.994 1.42162 8.994L 2.51 8.994C 3.09911 8.994 3.62536 8.60301 3.80969 8.01872C 3.92211 7.66819 4.06152 7.32212 4.23242 6.99851C 4.51574 6.45017 4.42138 5.80296 4.00305 5.38499L 3.234 4.61643C 3.15759 4.53556 3.15759 4.40519 3.234 4.32884L 4.34936 3.21867C 4.44836 3.11979 4.52929 3.11979 4.63268 3.21867L 5.40173 3.98722C 5.81103 4.39622 6.48107 4.4951 7.01623 4.21647C 7.34911 4.04569 7.69091 3.90183 8.03722 3.79399C 8.62182 3.6052 9.01305 3.08384 9.01305 2.49058L 9.01305 1.40293C 9.01305 1.29508 9.10754 1.20072 9.21545 1.20072L 10.7895 1.20072C 10.8975 1.20072 10.9919 1.29508 10.9919 1.40293L 10.9919 2.4951C 10.9919 3.08836 11.3832 3.61418 11.9678 3.7985C 12.3141 3.90635 12.6604 4.05015 12.9886 4.22093C 13.5239 4.4951 14.194 4.40074 14.6033 3.99174L 15.3723 3.22318C 15.4757 3.12431 15.5566 3.12431 15.6601 3.22318L 16.7754 4.33329C 16.8519 4.41423 16.8519 4.54454 16.7754 4.62095L 16.0063 5.38951C 15.5881 5.80747 15.4936 6.45469 15.777 7.00297C 15.9479 7.32658 16.0874 7.66819 16.1998 8.01872C 16.3887 8.60301 16.9104 8.994 17.504 8.994L 18.5923 8.994C 18.7003 8.994 18.7947 9.08842 18.7947 9.19627L 18.7947 10.7693C 18.7947 10.8772 18.7003 10.9715 18.5923 10.9715L 17.504 10.9715C 16.9104 10.9715 16.3841 11.3626 16.1998 11.9468C 16.0874 12.2974 15.9479 12.6435 15.777 12.9671C 15.4936 13.5109 15.5881 14.1626 16.0063 14.5805L 16.7754 15.3491C 16.8519 15.43 16.8519 15.5603 16.7754 15.6368L 15.6601 16.7469C 15.5566 16.8457 15.4757 16.8457 15.3723 16.7469L 14.6033 15.9783C 14.194 15.5693 13.5239 15.475 12.9886 15.7491C 12.6604 15.9199 12.3141 16.0592 11.9678 16.1716C 11.3832 16.3559 10.9919 16.8817 10.9919 17.4705L 10.9919 18.5581C 10.9919 18.666 10.8975 18.7604 10.7895 18.7604L 9.21545 18.7604C 9.10754 18.7604 9.01305 18.666 9.01305 18.5581L 9.01305 16.8862C 9.01305 16.612 8.82421 16.3738 8.55883 16.3154C 8.02367 16.1941 7.50646 16.0053 7.01623 15.7491ZM 7.2727 9.99998C 7.2727 11.5039 8.49597 12.7272 9.99999 12.7272C 11.5039 12.7272 12.7273 11.5039 12.7273 9.99998C 12.7273 8.49595 11.5039 7.27268 9.99999 7.27268C 8.49597 7.27268 7.2727 8.49595 7.2727 9.99998ZM 8.36193 9.99998C 8.36193 9.09507 9.09924 8.36192 9.99999 8.36192C 10.9049 8.36192 11.6381 9.09507 11.6381 9.99998C 11.6381 10.9049 10.9049 11.638 9.99999 11.638C 9.09509 11.638 8.36193 10.9049 8.36193 9.99998Z"/>
</defs>
</svg>
