<svg width="20" height="15" viewBox="0 0 20 15" version="1.1" xmlns="http://www.w3.org/2000/svg" xmlns:xlink="http://www.w3.org/1999/xlink">
<title>transactions</title>
<desc>Created using Figma</desc>
<g id="Canvas" transform="translate(1064 -454)">
<g id="icons/transactions">
<g id="ico/Transactions">
<use xlink:href="#path0_fill" transform="translate(-1064 454)" fill="#FFFFFF"/>
</g>
</g>
</g>
<defs>
<path id="path0_fill" d="M 19.1489 5.07353L 19.1489 2.75735C 19.1489 1.21324 17.9787 0 16.4894 0L 2.65957 0C 1.17021 0 0 1.21324 0 2.75735L 0 11.6912L 1.06383 11.6912L 1.06383 2.75735C 1.06383 1.875 1.80851 1.10294 2.65957 1.10294L 16.4894 1.10294C 17.3404 1.10294 18.0851 1.875 18.0851 2.75735L 18.0851 4.74265L 12.766 4.74265C 11.7021 4.74265 10.9574 5.625 10.9574 6.61765L 10.9574 8.38235C 10.9574 9.48529 11.7021 10.2574 12.766 10.2574L 18.0851 10.2574L 18.0851 12.2426C 18.0851 13.125 17.3404 13.8971 16.4894 13.8971L 5.42553 13.8971L 5.42553 15L 16.4894 15C 17.9787 15 19.1489 13.7868 19.1489 12.2426L 19.1489 9.92647C 19.6809 9.59559 20 9.04412 20 8.38235L 20 6.61765C 20 5.95588 19.6809 5.40441 19.1489 5.07353ZM 12.766 9.15441C 12.3404 9.15441 12.0213 8.82353 12.0213 8.38235L 12.0213 6.61765C 12.0213 6.17647 12.3404 5.84559 12.766 5.84559L 18.1915 5.84559C 18.617 5.84559 18.9362 6.17647 18.9362 6.61765L 18.9362 8.38235C 18.9362 8.82353 18.617 9.15441 18.1915 9.15441L 12.766 9.15441Z"/>
</defs>
</svg>
