<svg width="27" height="33" viewBox="0 0 27 33" version="1.1" xmlns="http://www.w3.org/2000/svg" xmlns:xlink="http://www.w3.org/1999/xlink">
<title>Vector</title>
<desc>Created using Figma</desc>
<g id="Canvas" transform="translate(-177 -433)">
<g id="Vector" filter="url(#filter0_d)">
<use xlink:href="#path0_fill" transform="translate(177 433)" fill="#FFFFFF"/>
</g>
</g>
<defs>
<filter id="filter0_d" filterUnits="userSpaceOnUse" x="177" y="433" width="27" height="33" color-interpolation-filters="sRGB">
<feFlood flood-opacity="0" result="BackgroundImageFix"/>
<feColorMatrix in="SourceAlpha" type="matrix" values="0 0 0 0 0 0 0 0 0 0 0 0 0 0 0 0 0 0 255 0"/>
<feOffset dx="2" dy="2"/>
<feGaussianBlur stdDeviation="0.5"/>
<feColorMatrix type="matrix" values="0 0 0 0 0 0 0 0 0 0 0 0 0 0 0 0 0 0 0.25 0"/>
<feBlend mode="normal" in2="BackgroundImageFix" result="effect1_dropShadow"/>
<feBlend mode="normal" in="SourceGraphic" in2="effect1_dropShadow" result="shape"/>
</filter>
<path id="path0_fill" d="M 12 0C 5.4 0 0 5.55555 0 12.5253C 0 13.7374 0.3 14.9495 0.8 16.2626L 6.2 13.1313C 6.2 12.9293 6.2 12.7273 6.2 12.5253C 6.2 9.19192 8.9 6.46465 12.2 6.46465C 15.5 6.46465 18.2 9.19192 18.2 12.5253C 18.2 15.8586 15.5 18.5859 12.2 18.5859C 10.2 18.5859 8.4 17.5758 7.3 16.0606L 2.1 19.0909C 4.8 23.8384 9.4 28.0808 11.2 29.697C 11.7 30.101 12.3 30.101 12.8 29.697C 15.5 27.2727 24 19.1919 24 12.5253C 24 5.55555 18.6 0 12 0Z"/>
</defs>
</svg>
